{"title":"Kung Fu Panda Secrets Of The Furious Five.[Exclusive].HDTV.720p.","uid":6836922,"size":563897526,"categoryP":"video","categoryS":"hd___movies","magnet":"?xt=urn:btih:e9d3cc8382c4c0a8e9ffda0d661ed3adae1e6d7c&amp;dn=Kung+Fu+Panda+Secrets+Of+The+Furious+Five.%5BExclusive%5D.HDTV.720p.&amp;tr=udp%3A%2F%2Ftracker.openbittorrent.com%3A80&amp;tr=udp%3A%2F%2Fopen.demonii.com%3A1337&amp;tr=udp%3A%2F%2Ftracker.coppersurfer.tk%3A6969&amp;tr=udp%3A%2F%2Fexodus.desync.com%3A6969","seeders":0,"leechers":1,"uploader":"harshad008","files":11,"time":1322045467,"description":"Info\n\nRelease Name: Kung Fu Panda Secrets of the Furious Five\nRelease Date: November 9, 2008 UsA\nRelease Length: 24mn 40s\nStoryline:Po is assigned by Master Shifu to teach an introduction to kung fu class for a group of rambunctious rabbit children. Fortunately for Po, it does not take him long to bring the class to order and for the children to calm down, and begins to emphasize to the kids that combat is not the only part of what kung fu is about, while its true meaning is &quot;excellence of self.&quot; To illustrate his point, he uses the stories of the Furious Five's individual pasts and the basic philosophical concepts they learned that enabled them to be great kung fu masters\n\nCast\n\nJack Black             -  Po\nDustin Hoffman         -  Master Shifu\nDavid Cross            -  Master Crane\nRandall Duk Kim        -  Master Oogway\nElizabeth Ann Bennett  -  Ant and Bunny\nJaycee Chan            -  Young Master Monkey\nJessica DiCicco        -  Young Master Viper\nMax Koch               -  young Master Mantis\nStephanie Lemelin      -  Mei Ling\nJames Sie              -  Grand Master Viper\nTara Strong            -  young Master Tigress\nFrank Welker           -  Animals' vocal effects (uncredited)\n\n\nInfo Specs\n\nGenre :  Animation | Short | Action\nLanguage : Hindi \nOriginal Source: HDTV\nTotal Size: 525 MB\nEncoder: Harshad (HD Desi Rockers)\n\nGeneral\nComplete name                    : Kung Fu Panda Secrets Of The Furious Five.[Exclusive].HDTV.720p. [Hindi]~Harshad.mkv\nFormat                           : Matroska\nFile size                        : 525 MiB\nDuration                         : 24mn 40s\nOverall bit rate                 : 2 977 Kbps\nEncoded date                     : UTC 2011-11-22 17:53:12\nWriting application              : mkvmerge v4.8.0 ('I Got The...') built on May 24 2011 03:12:58\nWriting library                  : libebml v1.2.0 + libmatroska v1.1.0\n\n\n\n\nVideo\nID                               : 1\nFormat                           : AVC\nFormat/Info                      : Advanced Video Codec\nFormat profile                   : &lt;a class=&quot;__cf_email__&quot; href=&quot;/cdn-cgi/l/email-protection&quot; data-cfemail=&quot;e3ab8a848ba3afd0cdd2&quot;&gt;[email&amp;#160;protected]&lt;/a&gt;&lt;script cf-hash='f9e31' type=&quot;text/javascript&quot;&gt;\n/* &lt;![CDATA[ */!function(){try{var t=&quot;currentScript&quot;in document?document.currentScript:function(){for(var t=document.getElementsByTagName(&quot;script&quot;),e=t.length;e--;)if(t[e].getAttribute(&quot;cf-hash&quot;))return t[e]}();if(t&amp;&amp;t.previousSibling){var e,r,n,i,c=t.previousSibling,a=c.getAttribute(&quot;data-cfemail&quot;);if(a){for(e=&quot;&quot;,r=parseInt(a.substr(0,2),16),n=2;a.length-n;n+=2)i=parseInt(a.substr(n,2),16)^r,e+=String.fromCharCode(i);e=document.createTextNode(e),c.parentNode.replaceChild(e,c)}}}catch(u){}}();/* ]]&gt; */&lt;/script&gt;\nFormat settings, CABAC           : Yes\nFormat settings, ReFrames        : 5 frames\nFormat settings, GOP             : M=2, N=4\nMuxing mode                      : Container profile=&lt;a class=&quot;__cf_email__&quot; href=&quot;/cdn-cgi/l/email-protection&quot; data-cfemail=&quot;c396ada8adacb4ad83f0edf2&quot;&gt;[email&amp;#160;protected]&lt;/a&gt;&lt;script cf-hash='f9e31' type=&quot;text/javascript&quot;&gt;\n/* &lt;![CDATA[ */!function(){try{var t=&quot;currentScript&quot;in document?document.currentScript:function(){for(var t=document.getElementsByTagName(&quot;script&quot;),e=t.length;e--;)if(t[e].getAttribute(&quot;cf-hash&quot;))return t[e]}();if(t&amp;&amp;t.previousSibling){var e,r,n,i,c=t.previousSibling,a=c.getAttribute(&quot;data-cfemail&quot;);if(a){for(e=&quot;&quot;,r=parseInt(a.substr(0,2),16),n=2;a.length-n;n+=2)i=parseInt(a.substr(n,2),16)^r,e+=String.fromCharCode(i);e=document.createTextNode(e),c.parentNode.replaceChild(e,c)}}}catch(u){}}();/* ]]&gt; */&lt;/script&gt;\nCodec ID                         : V_MPEG4/ISO/AVC\nDuration                         : 24mn 40s\nBit rate                         : 2 661 Kbps\nNominal bit rate                 : 2 849 Kbps\nWidth                            : 1 280 pixels\nHeight                           : 720 pixels\nDisplay aspect ratio             : 16:9\nFrame rate                       : 24.000 fps\nOriginal frame rate              : 25.000 fps\nColor space                      : YUV\nChroma subsampling               : 4:2:0\nBit depth                        : 8 bits\nScan type                        : Progressive\nBits/(Pixel*Frame)               : 0.120\nStream size                      : 470 MiB (89%)\nTitle                            : Video\nWriting library                  : x264 core 64 r995 2324c70\n\n\n\nAudio\nID                               : 2\nFormat                           : MPEG Audio\nFormat version                   : Version 1\nFormat profile                   : Layer 3\nCodec ID                         : A_MPEG/L3\nCodec ID/Hint                    : MP3\nDuration                         : 24mn 40s\nBit rate mode                    : Constant\nBit rate                         : 256 Kbps\nChannel(s)                       : 2 channels\nSampling rate                    : 44.1 KHz\nStream size                      : 45.2 MiB (9%)\nTitle                            : Hindi_by_Harshad\nLanguage                         : Hindi\n\n\nScreenshots\n &lt;a href=&quot;\nhttp://img710.imageshack.us/img710/1438/57414335.jpg&quot; rel=&quot;nofollow&quot; target=&quot;_NEW&quot;&gt;\nhttp://img710.imageshack.us/img710/1438/57414335.jpg&lt;/a&gt; &lt;a href=&quot;\nhttp://img405.imageshack.us/img405/3665/20458337.jpg&quot; rel=&quot;nofollow&quot; target=&quot;_NEW&quot;&gt;\nhttp://img405.imageshack.us/img405/3665/20458337.jpg&lt;/a&gt; &lt;a href=&quot;\nhttp://img32.imageshack.us/img32/2128/13570951.jpg&quot; rel=&quot;nofollow&quot; target=&quot;_NEW&quot;&gt;\nhttp://img32.imageshack.us/img32/2128/13570951.jpg&lt;/a&gt; &lt;a href=&quot;\nhttp://img221.imageshack.us/img221/3697/34205273m.jpg&quot; rel=&quot;nofollow&quot; target=&quot;_NEW&quot;&gt;\nhttp://img221.imageshack.us/img221/3697/34205273m.jpg&lt;/a&gt; &lt;a href=&quot;\nhttp://img205.imageshack.us/img205/1897/51377690.jpg&quot; rel=&quot;nofollow&quot; target=&quot;_NEW&quot;&gt;\nhttp://img205.imageshack.us/img205/1897/51377690.jpg&lt;/a&gt; &lt;a href=&quot;\nhttp://img14.imageshack.us/img14/8072/25418397.jpg&quot; rel=&quot;nofollow&quot; target=&quot;_NEW&quot;&gt;\nhttp://img14.imageshack.us/img14/8072/25418397.jpg&lt;/a&gt;\n\n","torrent":{"xt":"urn:btih:e9d3cc8382c4c0a8e9ffda0d661ed3adae1e6d7c","amp;dn":"Kung+Fu+Panda+Secrets+Of+The+Furious+Five.%5BExclusive%5D.HDTV.720p.","amp;tr":["udp%3A%2F%2Ftracker.openbittorrent.com%3A80","udp%3A%2F%2Fopen.demonii.com%3A1337","udp%3A%2F%2Ftracker.coppersurfer.tk%3A6969","udp%3A%2F%2Fexodus.desync.com%3A6969"],"infoHash":"e9d3cc8382c4c0a8e9ffda0d661ed3adae1e6d7c","infoHashBuffer":{"type":"Buffer","data":[233,211,204,131,130,196,192,168,233,255,218,13,102,30,211,173,174,30,109,124]},"announce":[],"urlList":[]}}